<svg xmlns="http://www.w3.org/2000/svg" xmlns:xlink="http://www.w3.org/1999/xlink" width="1080" zoomAndPan="magnify" viewBox="0 0 810 1439.999935" height="1920" preserveAspectRatio="xMidYMid meet" version="1.0"><defs><clipPath id="ef73234eed"><path d="M 0 411 L 795 411 L 795 1440 L 0 1440 Z M 0 411 " clip-rule="nonzero"/></clipPath><clipPath id="5ced4fbabd"><path d="M -143.65625 396.203125 L 812.515625 1198.40625 L 266.335938 1849.417969 L -689.835938 1047.214844 Z M -143.65625 396.203125 " clip-rule="nonzero"/></clipPath><clipPath id="e32c5721eb"><path d="M -114.355469 420.789062 L 780.695312 1171.707031 C 788.464844 1178.226562 793.328125 1187.570312 794.214844 1197.675781 C 795.097656 1207.78125 791.933594 1217.824219 785.414062 1225.597656 L 288.402344 1818 C 281.878906 1825.773438 272.539062 1830.636719 262.433594 1831.519531 C 252.328125 1832.40625 242.285156 1829.238281 234.511719 1822.71875 L -660.535156 1071.800781 C -668.304688 1065.277344 -673.167969 1055.9375 -674.054688 1045.832031 C -674.9375 1035.726562 -671.773438 1025.683594 -665.253906 1017.910156 L -168.242188 425.507812 C -161.722656 417.734375 -152.382812 412.871094 -142.277344 411.988281 C -132.167969 411.101562 -122.125 414.269531 -114.355469 420.789062 Z M -114.355469 420.789062 " clip-rule="nonzero"/></clipPath><clipPath id="ecd8d76249"><path d="M 121.5 34.441406 L 364.5 34.441406 L 364.5 277.441406 L 121.5 277.441406 Z M 121.5 34.441406 " clip-rule="nonzero"/></clipPath><clipPath id="091190e2c1"><path d="M 243 34.441406 C 175.898438 34.441406 121.5 88.835938 121.5 155.941406 C 121.5 223.042969 175.898438 277.441406 243 277.441406 C 310.101562 277.441406 364.5 223.042969 364.5 155.941406 C 364.5 88.835938 310.101562 34.441406 243 34.441406 Z M 243 34.441406 " clip-rule="nonzero"/></clipPath><clipPath id="81bf713c81"><path d="M 243 0 L 810 0 L 810 919 L 243 919 Z M 243 0 " clip-rule="nonzero"/></clipPath><clipPath id="cc463f3c15"><path d="M 929.832031 -291.878906 L 1463.464844 303.738281 L 774.785156 920.75 L 241.152344 325.132812 Z M 929.832031 -291.878906 " clip-rule="nonzero"/></clipPath><clipPath id="cf428dd551"><path d="M 929.832031 -291.878906 L 1463.464844 303.738281 L 776.632812 919.09375 L 243 323.480469 Z M 929.832031 -291.878906 " clip-rule="nonzero"/></clipPath><clipPath id="c44cc86654"><path d="M 523.191406 820.253906 L 704.691406 820.253906 L 704.691406 1001.753906 L 523.191406 1001.753906 Z M 523.191406 820.253906 " clip-rule="nonzero"/></clipPath><clipPath id="05d2667d4c"><path d="M 614.070312 820.253906 C 563.878906 820.253906 523.191406 860.941406 523.191406 911.132812 C 523.191406 961.324219 563.878906 1002.011719 614.070312 1002.011719 C 664.261719 1002.011719 704.949219 961.324219 704.949219 911.132812 C 704.949219 860.941406 664.261719 820.253906 614.070312 820.253906 Z M 614.070312 820.253906 " clip-rule="nonzero"/></clipPath></defs><rect x="-81" width="972" fill="#ffffff" y="-143.999994" height="1727.999922" fill-opacity="1"/><rect x="-81" width="972" fill="#ffffff" y="-143.999994" height="1727.999922" fill-opacity="1"/><g clip-path="url(#ef73234eed)"><g clip-path="url(#5ced4fbabd)"><g clip-path="url(#e32c5721eb)"><path fill="#f14f3a" d="M -143.65625 396.203125 L 809.972656 1196.273438 L 263.792969 1847.285156 L -689.835938 1047.214844 Z M -143.65625 396.203125 " fill-opacity="1" fill-rule="nonzero"/></g></g></g><g clip-path="url(#ecd8d76249)"><g clip-path="url(#091190e2c1)"><path stroke-linecap="butt" transform="matrix(0.75, 0, 0, 0.75, 121.500008, 34.440138)" fill="none" stroke-linejoin="miter" d="M 162.000004 0.00169093 C 72.531246 0.00169093 -0.0000103125 72.527739 -0.0000103125 162.001705 C -0.0000103125 251.470463 72.531246 324.001719 162.000004 324.001719 C 251.468762 324.001719 324.000018 251.470463 324.000018 162.001705 C 324.000018 72.527739 251.468762 0.00169093 162.000004 0.00169093 Z M 162.000004 0.00169093 " stroke="#eba63d" stroke-width="122" stroke-opacity="1" stroke-miterlimit="4"/></g></g><g clip-path="url(#81bf713c81)"><g clip-path="url(#cc463f3c15)"><g clip-path="url(#cf428dd551)"><path fill="#5e17eb" d="M 929.832031 -291.878906 L 1463.464844 303.738281 L 777.109375 918.664062 L 243.480469 323.050781 Z M 929.832031 -291.878906 " fill-opacity="1" fill-rule="nonzero"/></g></g></g><g clip-path="url(#c44cc86654)"><g clip-path="url(#05d2667d4c)"><path stroke-linecap="butt" transform="matrix(0.75, 0, 0, 0.75, 523.190709, 820.254509)" fill="none" stroke-linejoin="miter" d="M 121.172815 -0.000803397 C 54.250935 -0.000803397 0.000929846 54.249201 0.000929846 121.171082 C 0.000929846 188.092963 54.250935 242.342968 121.172815 242.342968 C 188.094696 242.342968 242.344701 188.092963 242.344701 121.171082 C 242.344701 54.249201 188.094696 -0.000803397 121.172815 -0.000803397 Z M 121.172815 -0.000803397 " stroke="#eba63d" stroke-width="100" stroke-opacity="1" stroke-miterlimit="4"/></g></g></svg>